<?xml version="1.0" encoding="UTF-8" standalone="no"?>
<!-- Created with Inkscape (http://www.inkscape.org/) -->

<svg
   width="2000"
   height="2000"
   viewBox="0 0 529.16665 529.16666"
   version="1.1"
   id="svg1"
   inkscape:version="1.3 (0e150ed, 2023-07-21)"
   sodipodi:docname="Premier Scoreboard splash screen.svg"
   xmlns:inkscape="http://www.inkscape.org/namespaces/inkscape"
   xmlns:sodipodi="http://sodipodi.sourceforge.net/DTD/sodipodi-0.dtd"
   xmlns="http://www.w3.org/2000/svg"
   xmlns:svg="http://www.w3.org/2000/svg">
  <sodipodi:namedview
     id="namedview1"
     pagecolor="#ffffff"
     bordercolor="#000000"
     borderopacity="0.25"
     inkscape:showpageshadow="2"
     inkscape:pageopacity="0.0"
     inkscape:pagecheckerboard="true"
     inkscape:deskcolor="#d1d1d1"
     inkscape:document-units="px"
     inkscape:zoom="0.39375701"
     inkscape:cx="768.24028"
     inkscape:cy="1018.3946"
     inkscape:window-width="1920"
     inkscape:window-height="1027"
     inkscape:window-x="906"
     inkscape:window-y="25"
     inkscape:window-maximized="1"
     inkscape:current-layer="layer1" />
  <defs
     id="defs1">
    <rect
       x="161.26697"
       y="257.77319"
       width="707.289"
       height="589.19586"
       id="rect2" />
  </defs>
  <g
     inkscape:label="Layer 1"
     inkscape:groupmode="layer"
     id="layer1">
    <g
       id="g3"
       transform="translate(1.4968379,-20.758189)">
      <path
         id="rect1"
         style="fill:#ffffff;stroke:#000000;stroke-width:1.32237;stroke-dasharray:none"
         d="m 413.29556,238.81451 c -5.60157,0 -10.1111,4.50953 -10.1111,10.1111 v 87.75035 c 0,5.60157 4.50953,10.11137 10.1111,10.11137 h 87.75062 c 5.60158,0 10.1111,-4.5098 10.1111,-10.11137 v -87.75035 c 0,-5.60157 -4.50952,-10.1111 -10.1111,-10.1111 z m 28.10768,3.19235 a 3.0694617,3.0694617 0 0 1 3.06932,3.06932 3.0694617,3.0694617 0 0 1 -3.06932,3.06961 3.0694617,3.0694617 0 0 1 -3.0696,-3.06961 3.0694617,3.0694617 0 0 1 3.0696,-3.06932 z m 31.53527,0 a 3.0694617,3.0694617 0 0 1 3.06959,3.06932 3.0694617,3.0694617 0 0 1 -3.06959,3.06961 3.0694617,3.0694617 0 0 1 -3.06933,-3.06961 3.0694617,3.0694617 0 0 1 3.06933,-3.06932 z" />
      <text
         xml:space="preserve"
         transform="matrix(0.14219082,0,0,0.14219082,385.93502,213.78733)"
         id="text1"
         style="font-style:normal;font-variant:normal;font-weight:normal;font-stretch:normal;font-size:506.667px;font-family:'Archivo Black';-inkscape-font-specification:'Archivo Black, ';white-space:pre;shape-inside:url(#rect2);display:inline;fill:#4b72b0;fill-opacity:1;stroke:#000000;stroke-width:3;stroke-dasharray:none"><tspan
           x="161.26758"
           y="729.97962"
           id="tspan3">25</tspan></text>
      <rect
         style="fill:#ffffff;stroke:#000000;stroke-width:0.710956;stroke-dasharray:none"
         id="rect3"
         width="3.7916875"
         height="20.944561"
         x="439.41705"
         y="223.59"
         ry="1.2638959" />
      <rect
         style="fill:#ffffff;stroke:#000000;stroke-width:0.710956;stroke-dasharray:none"
         id="rect3-0"
         width="3.7916875"
         height="20.944561"
         x="470.95245"
         y="223.59"
         ry="1.2638959" />
    </g>
    <text
       xml:space="preserve"
       style="font-style:normal;font-variant:normal;font-weight:normal;font-stretch:normal;font-size:74.0833px;font-family:Arvo;-inkscape-font-specification:Arvo;fill:#ffffff;fill-opacity:1;stroke:#000000;stroke-width:0.79375"
       x="12.419436"
       y="277.63525"
       id="text2"><tspan
         sodipodi:role="line"
         id="tspan2"
         style="font-style:normal;font-variant:normal;font-weight:bold;font-stretch:normal;font-size:74.0833px;font-family:Arvo;-inkscape-font-specification:'Arvo Bold';fill:#ffffff;fill-opacity:1;stroke-width:0.79375"
         x="12.419436"
         y="277.63525">PREMIER</tspan></text>
    <text
       xml:space="preserve"
       style="font-style:normal;font-variant:normal;font-weight:normal;font-stretch:normal;font-size:51.5056px;font-family:Arvo;-inkscape-font-specification:Arvo;fill:#ffffff;fill-opacity:1;stroke:#000000;stroke-width:0.79375"
       x="15.217109"
       y="320.50958"
       id="text2-7"><tspan
         sodipodi:role="line"
         id="tspan2-4"
         style="font-style:normal;font-variant:normal;font-weight:bold;font-stretch:normal;font-size:51.5056px;font-family:Arvo;-inkscape-font-specification:'Arvo Bold';fill:#ffffff;fill-opacity:1;stroke-width:0.79375"
         x="15.217109"
         y="320.50958">SCOREBOARD</tspan></text>
  </g>
</svg>
