<?xml version="1.0" encoding="UTF-8" standalone="no"?>
<!-- Created with Inkscape (http://www.inkscape.org/) -->

<svg
   width="1024"
   height="1024"
   viewBox="0 0 270.93333 270.93333"
   version="1.1"
   id="svg1"
   inkscape:version="1.3 (0e150ed, 2023-07-21)"
   sodipodi:docname="Premier Scoreboard Logo.svg"
   inkscape:export-filename="Premier Scoreboard Logo without background 512.png"
   inkscape:export-xdpi="48"
   inkscape:export-ydpi="48"
   xmlns:inkscape="http://www.inkscape.org/namespaces/inkscape"
   xmlns:sodipodi="http://sodipodi.sourceforge.net/DTD/sodipodi-0.dtd"
   xmlns="http://www.w3.org/2000/svg"
   xmlns:svg="http://www.w3.org/2000/svg">
  <sodipodi:namedview
     id="namedview1"
     pagecolor="#ffffff"
     bordercolor="#000000"
     borderopacity="0.25"
     inkscape:showpageshadow="2"
     inkscape:pageopacity="0.0"
     inkscape:pagecheckerboard="true"
     inkscape:deskcolor="#d1d1d1"
     inkscape:document-units="px"
     inkscape:zoom="0.55685651"
     inkscape:cx="805.41395"
     inkscape:cy="510.00571"
     inkscape:window-width="1920"
     inkscape:window-height="1027"
     inkscape:window-x="906"
     inkscape:window-y="25"
     inkscape:window-maximized="0"
     inkscape:current-layer="layer1" />
  <defs
     id="defs1">
    <rect
       x="161.26697"
       y="257.77319"
       width="707.28899"
       height="589.19585"
       id="rect2" />
  </defs>
  <g
     inkscape:label="Layer 1"
     inkscape:groupmode="layer"
     id="layer1">
    <path
       id="rect1"
       style="fill:#ffffff;stroke:#000000;stroke-width:2.46062;stroke-dasharray:none"
       d="m 53.825138,35.010781 c -10.423202,0 -18.814356,8.391155 -18.814356,18.814355 V 217.10768 c 0,10.42319 8.391154,18.81487 18.814356,18.81487 H 217.10819 c 10.4232,0 18.81436,-8.39168 18.81436,-18.81487 V 53.825136 c 0,-10.4232 -8.39116,-18.814355 -18.81436,-18.814355 z m 52.301712,5.940206 a 5.7115388,5.7115388 0 0 1 5.71128,5.711279 5.7115388,5.7115388 0 0 1 -5.71128,5.711796 5.7115388,5.7115388 0 0 1 -5.71179,-5.711796 5.7115388,5.7115388 0 0 1 5.71179,-5.711279 z m 58.67963,0 a 5.7115388,5.7115388 0 0 1 5.71179,5.711279 5.7115388,5.7115388 0 0 1 -5.71179,5.711796 5.7115388,5.7115388 0 0 1 -5.71128,-5.711796 5.7115388,5.7115388 0 0 1 5.71128,-5.711279 z" />
    <text
       xml:space="preserve"
       transform="matrix(0.26458333,0,0,0.26458333,2.9136596,-11.558634)"
       id="text1"
       style="font-style:normal;font-variant:normal;font-weight:normal;font-stretch:normal;font-size:506.667px;font-family:'Archivo Black';-inkscape-font-specification:'Archivo Black, ';white-space:pre;shape-inside:url(#rect2);display:inline;fill:#4b72b0;fill-opacity:1;stroke:#000000;stroke-width:3;stroke-dasharray:none"><tspan
         x="161.26758"
         y="729.97962"
         id="tspan1">25</tspan></text>
    <rect
       style="fill:#ffffff;stroke:#000000;stroke-width:1.20775;stroke-dasharray:none"
       id="rect3"
       width="7.1705961"
       height="31.960957"
       x="102.37345"
       y="13.343844"
       ry="1.9286785" />
    <rect
       style="fill:#ffffff;stroke:#000000;stroke-width:1.20775;stroke-dasharray:none"
       id="rect3-0"
       width="7.1705961"
       height="31.960957"
       x="161.05334"
       y="13.343844"
       ry="1.9286785" />
  </g>
</svg>
